# xmcd
#
# Track frame offsets: 
#        150
#        22985
#        42130
#        65460
#        80568
#        90401
#        105298
#        123942
#        144505
#        155170
#        174692
#        194162
#        212538
#        230280
#        240856
#        258148
#        272871
#
# Disc length: 3865 seconds
#
# Revision: 0
# Processed by: cddbd v1.5.2PL0 Copyright (c) Steve Scherf et al.
# Submitted via: ExactAudioCopy v1.2
#
DISCID=dc0f1711
DTITLE=Charlie Landsborough - The Storyteller and Collectors Items, CD2
DYEAR=2010
DGENRE=Country
TTITLE0=Come Next Year
TTITLE1=Love Love
TTITLE2=The Mountains Of Mourne
TTITLE3=Look What You've Done
TTITLE4=You Belong To Me
TTITLE5=You're Still Around
TTITLE6=Two At A Time
TTITLE7=Crazy
TTITLE8=To Each His Own
TTITLE9=Fly Like A Rocket
TTITLE10=How Can You Buy Killarney - An Irish Lullaby
TTITLE11=Can't Stop The Wheels
TTITLE12=Smoke Gets In Your Eyes
TTITLE13=There You Are
TTITLE14=You're Still Around [Bonus]
TTITLE15=Down To Earth
TTITLE16=No Time At All
EXTD=
EXTT0=
EXTT1=
EXTT2=
EXTT3=
EXTT4=
EXTT5=
EXTT6=
EXTT7=
EXTT8=
EXTT9=
EXTT10=
EXTT11=
EXTT12=
EXTT13=
EXTT14=
EXTT15=
EXTT16=
PLAYORDER=
